<svg enable-background="new 0 0 512 512" fill="#f00" viewBox="0 0 512 512" xmlns="http://www.w3.org/2000/svg"><path d="m256 0c-141.156 0-256 114.844-256 256s114.844 256 256 256 256-114.844 256-256-114.844-256-256-256zm0 490.667c-129.396 0-234.667-105.271-234.667-234.667s105.271-234.667 234.667-234.667 234.667 105.271 234.667 234.667-105.271 234.667-234.667 234.667z"/><path d="m387.125 152.458-184.458 184.459-99.125-99.125c-4.167-4.167-10.917-4.167-15.083 0-4.167 4.167-4.167 10.917 0 15.083l106.667 106.667c2.083 2.083 4.813 3.125 7.542 3.125s5.458-1.042 7.542-3.125l192-192c4.167-4.167 4.167-10.917 0-15.083-4.168-4.167-10.918-4.167-15.085-.001z"/></svg>